<svg data-v-fde0c5aa="" xmlns="http://www.w3.org/2000/svg" viewBox="0 0 280 200" class="iconAboveSlogan">

  <g data-v-fde0c5aa="" id="8dad7c2d-0ac4-4745-99c5-eff9fb7ad665" stroke="none" fill="#fff" transform="matrix(0.5051850359845806,0,0,0.5051850359845806,102.5126081832409,75.55966829180915)">
    <path d="M46 120.7c-.5-2.6-1.5-7.2-2.8-9.9-.2-.4-.5-1.4-.5-2.3.1-3.9.3-15.1 0-22.9 0-.5.1-1.4-1.2-2L39 82.5c-.8-.4-1.2.3-1.2.7-.4 8.7-.1 20.9 0 25.1 0 1-.4 2.1-.5 2.5-1.5 2.8-2.6 7.1-3 10-.1.7.3 1.8 1.2 1.9 1.8.2 5.3.5 9.6 0 .4 0 1.2-.9.9-2zM185.2 22.8S141.8 5.2 101 .6c-3.9-.4-10.1-1-14 0 0 0-40.6 5.9-84.2 22.2-3.7 1.4-3.8 2.7 0 3.7 0 0 28.4 13.2 84.2 22.2 3.9.6 10.1 1 14 0 0 0 51.5-10.5 84.2-22.2 3.7-1.4 3.8-2.7 0-3.7zM94 25.7c-5.4 0-9.8-1.3-9.8-2.8 0-1.5 4.4-2.8 9.8-2.8s9.8 1.3 9.8 2.8c0 1.6-4.4 2.8-9.8 2.8z"></path>
    <path d="M94.9 56.5c-2.9 0-6.2-.3-9-.7-20.9-3.4-37.9-7.3-51.2-11-.9-.2-2.8-.1-3 1.7-.7 8.3-.8 17.1.6 24.7.4 2 1.9 3.5 2.5 3.8 38.7 16 80 17.4 118.9-.2.4-.2 1.4-1 1.6-2.2 1.8-8.6 1.8-19.3.6-28.4-.1-.8-.9-.9-1.3-.8-25.3 6.8-49.4 11.8-52.1 12.3-2 .5-4.6.8-7.6.8z"></path>
  </g>

</svg>