<svg data-v-fde0c5aa="" xmlns="http://www.w3.org/2000/svg" viewBox="0 0 280 300" class="iconAboveSlogan">
  <!---->
  <defs data-v-fde0c5aa="">
    <!---->
  </defs>
  <rect data-v-fde0c5aa="" fill="transparent" x="0" y="0" width="300px" height="300px" class="logo-background-square"></rect>
  <defs data-v-fde0c5aa="">
    <!---->
  </defs>
  <g data-v-fde0c5aa="" id="979549aa-2f45-4127-97a2-968481894c90" fill="#fff" transform="matrix(2.998154939346666,0,0,2.998154939346666,19.670202958458905,154.0051384681453)">
    <path d="M0.11 3.36L2.86 3.36L2.86 12.60L5.49 12.60L5.49 3.36L8.23 3.36L8.23 1.05L0.11 1.05ZM15.36 9.35C15.37 9.27 15.37 9.11 15.37 9.02C15.37 6.50 13.71 5.21 11.52 5.21C9.35 5.21 7.57 6.92 7.57 9.02C7.57 11.10 9.35 12.81 11.52 12.81C13.12 12.81 14.43 12.29 15.25 10.93L13.45 10.04C12.85 10.68 12.50 10.84 11.70 10.84C11.07 10.84 10.15 10.46 10.15 9.35ZM10.22 7.98C10.26 7.32 10.74 6.82 11.59 6.82C12.32 6.82 12.84 7.22 12.95 7.98ZM15.95 9.02C15.95 11.12 17.42 12.81 19.52 12.81C20.50 12.81 21.34 12.38 21.87 11.79L21.90 11.79L21.90 12.60L24.35 12.60L24.35 5.42L21.87 5.42L21.87 6.10C21.28 5.53 20.48 5.21 19.52 5.21C17.42 5.21 15.95 6.92 15.95 9.02ZM18.58 9.02C18.58 8.02 19.32 7.32 20.26 7.32C21.18 7.32 21.92 8.02 21.92 9.02C21.92 10.00 21.22 10.70 20.26 10.70C19.25 10.70 18.58 10.00 18.58 9.02ZM29.85 7.24C30.59 7.24 31.05 7.57 31.05 7.57L31.89 5.88C31.89 5.88 31.08 5.21 29.48 5.21C27.40 5.21 25.51 6.92 25.51 9.03C25.51 11.13 27.41 12.81 29.48 12.81C31.08 12.81 31.89 12.17 31.89 12.17L31.05 10.44C31.05 10.44 30.59 10.78 29.85 10.78C28.91 10.78 28.14 10.00 28.14 9.00C28.14 8.02 28.91 7.24 29.85 7.24ZM32.90 12.60L35.38 12.60L35.38 8.54C35.38 7.83 36.11 7.14 36.85 7.14C37.65 7.14 38.14 7.83 38.14 8.54L38.14 12.60L40.61 12.60L40.61 7.87C40.61 5.87 38.78 5.21 37.46 5.21C36.68 5.21 35.97 5.61 35.41 6.17L35.38 6.17L35.38 0.56L32.90 0.56ZM49.42 9.35C49.43 9.27 49.43 9.11 49.43 9.02C49.43 6.50 47.77 5.21 45.58 5.21C43.41 5.21 41.64 6.92 41.64 9.02C41.64 11.10 43.41 12.81 45.58 12.81C47.18 12.81 48.50 12.29 49.31 10.93L47.52 10.04C46.91 10.68 46.56 10.84 45.77 10.84C45.14 10.84 44.21 10.46 44.21 9.35ZM44.28 7.98C44.32 7.32 44.80 6.82 45.65 6.82C46.38 6.82 46.90 7.22 47.01 7.98ZM50.57 12.60L53.05 12.60L53.05 8.82C53.05 8.64 53.23 7.36 54.52 7.36C55.34 7.36 55.80 7.76 55.80 7.76L56.84 5.66C56.84 5.66 56.20 5.21 55.27 5.21C53.86 5.21 53.07 6.45 53.07 6.45L53.05 6.45L53.05 5.42L50.57 5.42ZM60.55 5.21C58.66 5.21 57.41 6.05 57.41 7.52C57.41 8.60 58.14 9.10 58.87 9.48C59.68 9.90 60.47 9.94 60.47 10.46C60.47 10.93 60.05 10.98 59.70 10.98C58.90 10.98 57.92 10.15 57.92 10.15L56.91 11.84C56.91 11.84 57.95 12.81 59.68 12.81C61.15 12.81 63.08 12.47 63.08 10.36C63.08 8.89 61.85 8.36 60.90 8.06C60.28 7.87 59.78 7.76 59.78 7.38C59.78 7.04 60.00 6.94 60.55 6.94C61.31 6.94 62.15 7.39 62.15 7.39L62.96 5.77C62.96 5.77 61.94 5.21 60.55 5.21ZM64.32 7.48L64.32 9.62L68.82 9.62L68.82 7.48ZM77.77 9.35C77.78 9.27 77.78 9.11 77.78 9.02C77.78 6.50 76.12 5.21 73.93 5.21C71.76 5.21 69.99 6.92 69.99 9.02C69.99 11.10 71.76 12.81 73.93 12.81C75.53 12.81 76.85 12.29 77.66 10.93L75.87 10.04C75.26 10.68 74.91 10.84 74.12 10.84C73.49 10.84 72.56 10.46 72.56 9.35ZM72.63 7.98C72.67 7.32 73.15 6.82 74.00 6.82C74.73 6.82 75.25 7.22 75.36 7.98ZM78.62 14.36C79.38 16.11 81.10 16.45 82.60 16.45C85.05 16.45 86.83 15.20 86.83 12.80L86.83 5.42L84.35 5.42L84.35 6.06L84.31 6.06C83.72 5.52 82.95 5.21 82.00 5.21C79.90 5.21 78.43 6.92 78.43 9.02C78.43 11.12 79.90 12.81 82.00 12.81C82.98 12.81 83.82 12.67 84.35 12.08L84.35 12.61C84.35 13.89 83.29 14.29 82.60 14.29C81.52 14.29 80.92 13.80 80.65 13.37ZM81.06 9.02C81.06 8.02 81.80 7.32 82.74 7.32C83.66 7.32 84.41 8.02 84.41 9.02C84.41 10.00 83.71 10.70 82.74 10.70C81.73 10.70 81.06 10.00 81.06 9.02Z"></path>
  </g>
  <defs data-v-fde0c5aa="">
    <!---->
  </defs>
  <g data-v-fde0c5aa="" id="8dad7c2d-0ac4-4745-99c5-eff9fb7ad665" stroke="none" fill="#fff" transform="matrix(0.5051850359845806,0,0,0.5051850359845806,102.5126081832409,75.55966829180915)">
    <path d="M46 120.7c-.5-2.6-1.5-7.2-2.8-9.9-.2-.4-.5-1.4-.5-2.3.1-3.9.3-15.1 0-22.9 0-.5.1-1.4-1.2-2L39 82.5c-.8-.4-1.2.3-1.2.7-.4 8.7-.1 20.9 0 25.1 0 1-.4 2.1-.5 2.5-1.5 2.8-2.6 7.1-3 10-.1.7.3 1.8 1.2 1.9 1.8.2 5.3.5 9.6 0 .4 0 1.2-.9.9-2zM185.2 22.8S141.8 5.2 101 .6c-3.9-.4-10.1-1-14 0 0 0-40.6 5.9-84.2 22.2-3.7 1.4-3.8 2.7 0 3.7 0 0 28.4 13.2 84.2 22.2 3.9.6 10.1 1 14 0 0 0 51.5-10.5 84.2-22.2 3.7-1.4 3.8-2.7 0-3.7zM94 25.7c-5.4 0-9.8-1.3-9.8-2.8 0-1.5 4.4-2.8 9.8-2.8s9.8 1.3 9.8 2.8c0 1.6-4.4 2.8-9.8 2.8z"></path>
    <path d="M94.9 56.5c-2.9 0-6.2-.3-9-.7-20.9-3.4-37.9-7.3-51.2-11-.9-.2-2.8-.1-3 1.7-.7 8.3-.8 17.1.6 24.7.4 2 1.9 3.5 2.5 3.8 38.7 16 80 17.4 118.9-.2.4-.2 1.4-1 1.6-2.2 1.8-8.6 1.8-19.3.6-28.4-.1-.8-.9-.9-1.3-.8-25.3 6.8-49.4 11.8-52.1 12.3-2 .5-4.6.8-7.6.8z"></path>
  </g>
  <defs data-v-fde0c5aa="">
    <!---->
  </defs>
  <g data-v-fde0c5aa="" id="74132172-1724-422f-a295-09f23f75ecfc" fill="#fff" transform="matrix(0.8663201527058473,0,0,0.8663201527058473,51.954218307926254,208.40408993822544)">
    <path d="M6.59 9.21L6.59 8.71Q6.59 8.23 6.41 7.87Q6.22 7.50 5.89 7.27Q5.57 7.03 5.15 6.90Q4.73 6.78 4.27 6.78L4.27 6.78Q3.86 6.78 3.50 6.88Q3.14 6.99 2.85 7.18Q2.56 7.38 2.39 7.66Q2.23 7.95 2.23 8.33L2.23 8.33L2.23 8.41Q2.23 8.82 2.39 9.11Q2.56 9.39 2.89 9.60Q3.22 9.80 3.71 9.93Q4.20 10.07 4.86 10.16L4.86 10.16Q6.40 10.40 7.13 11.07Q7.85 11.73 7.85 12.85L7.85 12.85L7.85 13.02Q7.85 13.65 7.64 14.17Q7.42 14.70 6.99 15.08Q6.57 15.46 5.94 15.67Q5.31 15.88 4.48 15.88L4.48 15.88Q3.54 15.88 2.82 15.60Q2.10 15.33 1.62 14.85Q1.13 14.36 0.88 13.71Q0.63 13.06 0.63 12.29L0.63 12.29L0.63 11.87L1.81 11.87L1.81 12.21Q1.81 13.50 2.51 14.14Q3.22 14.78 4.48 14.78L4.48 14.78Q5.57 14.78 6.13 14.30Q6.68 13.82 6.68 13.02L6.68 13.02L6.68 12.94Q6.68 12.17 6.11 11.76Q5.54 11.35 4.27 11.17L4.27 11.17Q3.53 11.07 2.93 10.87Q2.34 10.67 1.92 10.34Q1.50 10.01 1.27 9.55Q1.05 9.09 1.05 8.46L1.05 8.46L1.05 8.29Q1.05 7.71 1.29 7.24Q1.53 6.76 1.95 6.41Q2.38 6.06 2.98 5.87Q3.57 5.68 4.28 5.68L4.28 5.68Q5.11 5.68 5.76 5.92Q6.41 6.16 6.86 6.56Q7.31 6.96 7.54 7.50Q7.77 8.04 7.77 8.62L7.77 8.62L7.77 9.21L6.59 9.21ZM18.94 6.66L18.94 6.66Q18.94 6.26 19.23 5.97Q19.52 5.68 19.92 5.68L19.92 5.68Q20.33 5.68 20.61 5.97Q20.90 6.26 20.90 6.66L20.90 6.66Q20.90 7.07 20.61 7.36Q20.33 7.64 19.92 7.64L19.92 7.64Q19.52 7.64 19.23 7.36Q18.94 7.07 18.94 6.66ZM16.95 15.68L16.95 14.67L19.39 14.67L19.39 9.74L17.21 9.74L17.21 8.74L20.48 8.74L20.48 14.67L22.75 14.67L22.75 15.68L16.95 15.68ZM39.03 10.33L39.03 15.68L37.94 15.68L37.94 10.70Q37.94 10.21 37.72 9.89Q37.49 9.58 37.00 9.58L37.00 9.58Q36.54 9.58 36.25 9.92Q35.97 10.26 35.97 10.98L35.97 10.98L35.97 15.68L34.87 15.68L34.87 10.64Q34.87 10.18 34.62 9.88Q34.37 9.58 33.95 9.58L33.95 9.58Q33.45 9.58 33.17 9.94Q32.90 10.30 32.90 10.89L32.90 10.89L32.90 15.68L31.81 15.68L31.81 8.74L32.90 8.74L32.90 9.49L33.07 9.49Q33.25 9.00 33.60 8.77Q33.95 8.54 34.43 8.54L34.43 8.54Q34.93 8.54 35.26 8.81Q35.59 9.07 35.71 9.49L35.71 9.49L35.88 9.49Q36.36 8.54 37.39 8.54L37.39 8.54Q38.18 8.54 38.60 9.04Q39.03 9.53 39.03 10.33L39.03 10.33ZM48.76 14.62L48.76 18.48L47.67 18.48L47.67 8.74L48.76 8.74L48.76 9.83L48.93 9.83Q49.29 9.20 49.94 8.87Q50.58 8.54 51.34 8.54L51.34 8.54Q51.98 8.54 52.56 8.78Q53.13 9.02 53.57 9.46Q54.01 9.91 54.27 10.57Q54.53 11.23 54.53 12.07L54.53 12.07L54.53 12.35Q54.53 13.20 54.28 13.86Q54.03 14.52 53.59 14.97Q53.14 15.41 52.56 15.64Q51.97 15.88 51.31 15.88L51.31 15.88Q50.97 15.88 50.62 15.80Q50.27 15.72 49.96 15.56Q49.64 15.40 49.38 15.17Q49.11 14.94 48.93 14.62L48.93 14.62L48.76 14.62ZM51.09 14.84L51.09 14.84Q51.59 14.84 52.01 14.66Q52.43 14.49 52.75 14.17Q53.06 13.85 53.23 13.38Q53.41 12.92 53.41 12.35L53.41 12.35L53.41 12.07Q53.41 11.51 53.23 11.05Q53.06 10.60 52.75 10.27Q52.43 9.94 52.00 9.76Q51.58 9.58 51.09 9.58L51.09 9.58Q50.60 9.58 50.18 9.77Q49.76 9.95 49.44 10.29Q49.13 10.63 48.94 11.09Q48.76 11.56 48.76 12.12L48.76 12.12L48.76 12.29Q48.76 12.87 48.94 13.33Q49.13 13.80 49.44 14.14Q49.76 14.48 50.18 14.66Q50.60 14.84 51.09 14.84ZM63.49 15.68L63.49 14.67L66.01 14.67L66.01 6.89L63.57 6.89L63.57 5.88L67.10 5.88L67.10 14.67L69.62 14.67L69.62 15.68L63.49 15.68ZM85.46 12.54L79.86 12.54Q79.90 13.58 80.50 14.21Q81.10 14.84 82.18 14.84L82.18 14.84Q82.67 14.84 83.03 14.73Q83.40 14.62 83.66 14.42Q83.92 14.22 84.08 13.96Q84.24 13.71 84.34 13.41L84.34 13.41L85.37 13.69Q85.08 14.66 84.29 15.27Q83.50 15.88 82.15 15.88L82.15 15.88Q81.41 15.88 80.79 15.62Q80.16 15.36 79.72 14.88Q79.27 14.41 79.02 13.75Q78.76 13.09 78.76 12.29L78.76 12.29L78.76 11.96Q78.76 11.23 79.02 10.60Q79.28 9.97 79.74 9.51Q80.21 9.06 80.83 8.80Q81.45 8.54 82.18 8.54L82.18 8.54Q83.03 8.54 83.66 8.86Q84.28 9.17 84.68 9.63Q85.08 10.09 85.27 10.64Q85.46 11.19 85.46 11.65L85.46 11.65L85.46 12.54ZM82.18 9.58L82.18 9.58Q81.72 9.58 81.32 9.72Q80.92 9.87 80.62 10.14Q80.32 10.40 80.13 10.76Q79.94 11.12 79.88 11.54L79.88 11.54L84.36 11.54Q84.34 11.09 84.15 10.72Q83.96 10.36 83.66 10.11Q83.36 9.86 82.97 9.72Q82.59 9.58 82.18 9.58ZM112.28 14.90L112.28 14.90Q112.28 14.49 112.57 14.20Q112.85 13.92 113.26 13.92L113.26 13.92Q113.67 13.92 113.95 14.20Q114.24 14.49 114.24 14.90L114.24 14.90L114.24 16.27Q114.24 16.74 113.94 17.05Q113.64 17.36 113.16 17.36L113.16 17.36L112.45 17.36L112.45 16.60L113.11 16.60Q113.48 16.60 113.48 16.18L113.48 16.18L113.48 15.83Q113.37 15.88 113.25 15.88L113.25 15.88Q112.85 15.88 112.57 15.59Q112.28 15.30 112.28 14.90ZM141.44 15.68L141.44 5.88L147.46 5.88L147.46 6.97L142.62 6.97L142.62 10.22L147.38 10.22L147.38 11.31L142.62 11.31L142.62 15.68L141.44 15.68ZM161.94 14.59L161.94 14.50L161.77 14.50Q161.43 15.20 160.84 15.54Q160.24 15.88 159.59 15.88L159.59 15.88Q158.90 15.88 158.31 15.64Q157.72 15.41 157.28 14.96Q156.84 14.50 156.59 13.85Q156.34 13.19 156.34 12.32L156.34 12.32L156.34 12.10Q156.34 11.24 156.59 10.58Q156.84 9.93 157.28 9.47Q157.72 9.02 158.31 8.78Q158.90 8.54 159.56 8.54L159.56 8.54Q160.27 8.54 160.85 8.86Q161.43 9.17 161.77 9.83L161.77 9.83L161.94 9.83L161.94 8.74L163.03 8.74L163.03 14.25Q163.03 14.67 163.41 14.67L163.41 14.67L163.76 14.67L163.76 15.68L163.02 15.68Q162.54 15.68 162.24 15.37Q161.94 15.06 161.94 14.59L161.94 14.59ZM159.70 14.84L159.70 14.84Q160.19 14.84 160.60 14.66Q161.01 14.48 161.31 14.14Q161.60 13.80 161.77 13.33Q161.94 12.87 161.94 12.29L161.94 12.29L161.94 12.12Q161.94 11.56 161.77 11.09Q161.60 10.63 161.30 10.29Q161 9.95 160.59 9.77Q160.17 9.58 159.70 9.58L159.70 9.58Q159.21 9.58 158.80 9.76Q158.40 9.94 158.09 10.27Q157.79 10.60 157.63 11.07Q157.46 11.54 157.46 12.10L157.46 12.10L157.46 12.32Q157.46 13.51 158.08 14.17Q158.70 14.84 159.70 14.84ZM173.91 10.53L173.91 10.53Q173.91 11.03 174.34 11.30Q174.76 11.56 175.90 11.65L175.90 11.65Q177.11 11.75 177.75 12.23Q178.39 12.71 178.39 13.64L178.39 13.64L178.39 13.72Q178.39 14.22 178.19 14.62Q177.98 15.02 177.63 15.30Q177.27 15.58 176.76 15.73Q176.25 15.88 175.64 15.88L175.64 15.88Q174.83 15.88 174.25 15.66Q173.67 15.44 173.29 15.08Q172.90 14.73 172.70 14.27Q172.51 13.82 172.48 13.36L172.48 13.36L173.52 13.10Q173.59 13.90 174.13 14.38Q174.68 14.87 175.59 14.87L175.59 14.87Q176.36 14.87 176.83 14.57Q177.30 14.27 177.30 13.72L177.30 13.72Q177.30 13.13 176.83 12.88Q176.37 12.63 175.34 12.56L175.34 12.56Q174.13 12.47 173.49 12.00Q172.84 11.52 172.84 10.61L172.84 10.61L172.84 10.53Q172.84 10.04 173.05 9.67Q173.26 9.30 173.62 9.04Q173.98 8.79 174.43 8.67Q174.87 8.54 175.36 8.54L175.36 8.54Q176.05 8.54 176.57 8.73Q177.09 8.92 177.44 9.22Q177.79 9.52 177.98 9.91Q178.16 10.30 178.22 10.70L178.22 10.70L177.18 10.95Q177.11 10.28 176.65 9.90Q176.18 9.52 175.42 9.52L175.42 9.52Q175.13 9.52 174.85 9.58Q174.58 9.65 174.37 9.77Q174.16 9.90 174.03 10.09Q173.91 10.28 173.91 10.53ZM187.80 9.74L187.80 8.74L189.98 8.74L189.98 5.88L191.07 5.88L191.07 8.74L193.76 8.74L193.76 9.74L191.07 9.74L191.07 14.25Q191.07 14.67 191.45 14.67L191.45 14.67L193.42 14.67L193.42 15.68L191.06 15.68Q190.58 15.68 190.28 15.37Q189.98 15.06 189.98 14.59L189.98 14.59L189.98 9.74L187.80 9.74ZM210.00 12.54L204.40 12.54Q204.44 13.58 205.04 14.21Q205.65 14.84 206.72 14.84L206.72 14.84Q207.21 14.84 207.58 14.73Q207.94 14.62 208.20 14.42Q208.46 14.22 208.62 13.96Q208.78 13.71 208.88 13.41L208.88 13.41L209.92 13.69Q209.62 14.66 208.83 15.27Q208.04 15.88 206.70 15.88L206.70 15.88Q205.95 15.88 205.33 15.62Q204.71 15.36 204.26 14.88Q203.81 14.41 203.56 13.75Q203.31 13.09 203.31 12.29L203.31 12.29L203.31 11.96Q203.31 11.23 203.57 10.60Q203.83 9.97 204.29 9.51Q204.75 9.06 205.37 8.80Q206.00 8.54 206.72 8.54L206.72 8.54Q207.58 8.54 208.20 8.86Q208.82 9.17 209.22 9.63Q209.62 10.09 209.81 10.64Q210.00 11.19 210.00 11.65L210.00 11.65L210.00 12.54ZM206.72 9.58L206.72 9.58Q206.26 9.58 205.86 9.72Q205.46 9.87 205.16 10.14Q204.86 10.40 204.67 10.76Q204.48 11.12 204.43 11.54L204.43 11.54L208.91 11.54Q208.88 11.09 208.69 10.72Q208.50 10.36 208.20 10.11Q207.90 9.86 207.52 9.72Q207.13 9.58 206.72 9.58ZM218.78 9.74L218.78 8.74L221.30 8.74L221.30 9.66L221.47 9.66Q221.73 9.09 222.22 8.81Q222.71 8.54 223.34 8.54L223.34 8.54Q224.39 8.54 225.04 9.23Q225.68 9.91 225.72 11.23L225.72 11.23L224.57 11.40Q224.57 10.43 224.11 10.00Q223.65 9.58 222.98 9.58L222.98 9.58Q222.54 9.58 222.23 9.74Q221.91 9.91 221.70 10.21Q221.49 10.50 221.40 10.89Q221.30 11.28 221.30 11.73L221.30 11.73L221.30 14.67L223.06 14.67L223.06 15.68L218.61 15.68L218.61 14.67L220.21 14.67L220.21 9.74L218.78 9.74Z"></path>
  </g>
</svg>